<?xml version="1.0" standalone="no"?><!DOCTYPE svg PUBLIC "-//W3C//DTD SVG 1.1//EN" "http://www.w3.org/Graphics/SVG/1.1/DTD/svg11.dtd"><svg xmlns:xlink="http://www.w3.org/1999/xlink" version="1.1" class="highcharts-root" style="font-family:&quot;Open Sans&quot;, -apple-system, BlinkMacSystemFont, Avenir Next, Avenir, Segoe UI, Lucida Grande, Helvetica Neue, Helvetica, Fira Sans, Roboto, Noto, Droid Sans, Cantarell, Oxygen, Ubuntu, Franklin Gothic Medium, Century Gothic, Liberation Sans, sans-serif;font-size:12px;color:#333237;fill:#333237;" xmlns="http://www.w3.org/2000/svg" width="600" height="400" viewBox="0 0 600 400"><desc>Created with Highcharts 8.2.2</desc><defs><clipPath id="highcharts-l7h22fu-33-"><rect x="0" y="0" width="430" height="237" fill="none"></rect></clipPath></defs><rect fill="#ffffff" class="highcharts-background" x="0" y="0" width="600" height="400" rx="0" ry="0"></rect><rect fill="none" class="highcharts-plot-background" x="76" y="85" width="430" height="237"></rect><g class="highcharts-pane-group" data-z-index="0"></g><g class="highcharts-grid highcharts-xaxis-grid" data-z-index="1"><path fill="none" data-z-index="1" class="highcharts-grid-line" d="M 111.5 85 L 111.5 322" opacity="1"></path><path fill="none" data-z-index="1" class="highcharts-grid-line" d="M 147.5 85 L 147.5 322" opacity="1"></path><path fill="none" data-z-index="1" class="highcharts-grid-line" d="M 183.5 85 L 183.5 322" opacity="1"></path><path fill="none" data-z-index="1" class="highcharts-grid-line" d="M 218.5 85 L 218.5 322" opacity="1"></path><path fill="none" data-z-index="1" class="highcharts-grid-line" d="M 254.5 85 L 254.5 322" opacity="1"></path><path fill="none" data-z-index="1" class="highcharts-grid-line" d="M 290.5 85 L 290.5 322" opacity="1"></path><path fill="none" data-z-index="1" class="highcharts-grid-line" d="M 326.5 85 L 326.5 322" opacity="1"></path><path fill="none" data-z-index="1" class="highcharts-grid-line" d="M 362.5 85 L 362.5 322" opacity="1"></path><path fill="none" data-z-index="1" class="highcharts-grid-line" d="M 398.5 85 L 398.5 322" opacity="1"></path><path fill="none" data-z-index="1" class="highcharts-grid-line" d="M 433.5 85 L 433.5 322" opacity="1"></path><path fill="none" data-z-index="1" class="highcharts-grid-line" d="M 469.5 85 L 469.5 322" opacity="1"></path><path fill="none" data-z-index="1" class="highcharts-grid-line" d="M 505.5 85 L 505.5 322" opacity="1"></path><path fill="none" data-z-index="1" class="highcharts-grid-line" d="M 75.5 85 L 75.5 322" opacity="1"></path></g><g class="highcharts-grid highcharts-yaxis-grid" data-z-index="1"><path fill="none" stroke="#e6e6e6" stroke-width="1" data-z-index="1" class="highcharts-grid-line" d="M 76 322.5 L 506 322.5" opacity="1"></path><path fill="none" stroke="#e6e6e6" stroke-width="1" data-z-index="1" class="highcharts-grid-line" d="M 76 263.5 L 506 263.5" opacity="1"></path><path fill="none" stroke="#e6e6e6" stroke-width="1" data-z-index="1" class="highcharts-grid-line" d="M 76 204.5 L 506 204.5" opacity="1"></path><path fill="none" stroke="#e6e6e6" stroke-width="1" data-z-index="1" class="highcharts-grid-line" d="M 76 144.5 L 506 144.5" opacity="1"></path><path fill="none" stroke="#e6e6e6" stroke-width="1" data-z-index="1" class="highcharts-grid-line" d="M 76 84.5 L 506 84.5" opacity="1"></path></g><g class="highcharts-grid highcharts-yaxis-grid" data-z-index="1"><path fill="none" stroke="#e6e6e6" stroke-width="1" data-z-index="1" class="highcharts-grid-line" d="M 76 322.5 L 506 322.5" opacity="1"></path><path fill="none" stroke="#e6e6e6" stroke-width="1" data-z-index="1" class="highcharts-grid-line" d="M 76 263.5 L 506 263.5" opacity="1"></path><path fill="none" stroke="#e6e6e6" stroke-width="1" data-z-index="1" class="highcharts-grid-line" d="M 76 204.5 L 506 204.5" opacity="1"></path><path fill="none" stroke="#e6e6e6" stroke-width="1" data-z-index="1" class="highcharts-grid-line" d="M 76 144.5 L 506 144.5" opacity="1"></path><path fill="none" stroke="#e6e6e6" stroke-width="1" data-z-index="1" class="highcharts-grid-line" d="M 76 84.5 L 506 84.5" opacity="1"></path></g><rect fill="none" class="highcharts-plot-border" data-z-index="1" x="76" y="85" width="430" height="237"></rect><g class="highcharts-axis highcharts-xaxis" data-z-index="2"><path fill="none" class="highcharts-axis-line" stroke="#ccd6eb" stroke-width="1" data-z-index="7" d="M 76 322.5 L 506 322.5"></path></g><g class="highcharts-axis highcharts-yaxis" data-z-index="2"><text x="25.703125" data-z-index="7" text-anchor="middle" transform="translate(0,0) rotate(270 25.703125 203.5)" class="highcharts-axis-title" style="color:#666666;fill:#666666;" y="203.5"><tspan>Temperature</tspan></text><path fill="none" class="highcharts-axis-line" data-z-index="7" d="M 76 85 L 76 322"></path></g><g class="highcharts-axis highcharts-yaxis" data-z-index="2"><text x="574.203125" data-z-index="7" text-anchor="middle" transform="translate(0,0) rotate(90 574.203125 203.5)" class="highcharts-axis-title" style="color:#666666;fill:#666666;" y="203.5"><tspan>Rainfall</tspan></text><path fill="none" class="highcharts-axis-line" data-z-index="7" d="M 506 85 L 506 322"></path></g><g class="highcharts-series-group" data-z-index="3"><g class="highcharts-series highcharts-series-0 highcharts-column-series highcharts-color-0" data-z-index="0.1" opacity="1" transform="translate(76,85) scale(1 1)" clip-path="url(#highcharts-l7h22fu-33-)"><rect x="8.5" y="237.5" width="18" height="0" fill="#7cb5ec" stroke="#ffffff" stroke-width="1" opacity="1" class="highcharts-point highcharts-color-0"></rect><rect x="44.5" y="235.5" width="18" height="2" fill="#7cb5ec" stroke="#ffffff" stroke-width="1" opacity="1" class="highcharts-point highcharts-color-0"></rect><rect x="80.5" y="233.5" width="18" height="4" fill="#7cb5ec" stroke="#ffffff" stroke-width="1" opacity="1" class="highcharts-point highcharts-color-0"></rect><rect x="116.5" y="225.5" width="18" height="12" fill="#7cb5ec" stroke="#ffffff" stroke-width="1" opacity="1" class="highcharts-point highcharts-color-0"></rect><rect x="152.5" y="204.5" width="18" height="33" fill="#7cb5ec" stroke="#ffffff" stroke-width="1" opacity="1" class="highcharts-point highcharts-color-0"></rect><rect x="187.5" y="183.5" width="18" height="54" fill="#7cb5ec" stroke="#ffffff" stroke-width="1" opacity="1" class="highcharts-point highcharts-color-0"></rect><rect x="223.5" y="115.5" width="18" height="122" fill="#7cb5ec" stroke="#ffffff" stroke-width="1" opacity="1" class="highcharts-point highcharts-color-0"></rect><rect x="259.5" y="55.5" width="18" height="182" fill="#7cb5ec" stroke="#ffffff" stroke-width="1" opacity="1" class="highcharts-point highcharts-color-0"></rect><rect x="295.5" y="154.5" width="18" height="83" fill="#7cb5ec" stroke="#ffffff" stroke-width="1" opacity="1" class="highcharts-point highcharts-color-0"></rect><rect x="331.5" y="214.5" width="18" height="23" fill="#7cb5ec" stroke="#ffffff" stroke-width="1" opacity="1" class="highcharts-point highcharts-color-0"></rect><rect x="367.5" y="236.5" width="18" height="1" fill="#7cb5ec" stroke="#ffffff" stroke-width="1" opacity="1" class="highcharts-point highcharts-color-0"></rect><rect x="402.5" y="237.5" width="18" height="0" fill="#7cb5ec" stroke="#ffffff" stroke-width="1" opacity="1" class="highcharts-point highcharts-color-0"></rect></g><g class="highcharts-markers highcharts-series-0 highcharts-column-series highcharts-color-0" data-z-index="0.1" opacity="1" transform="translate(76,85) scale(1 1)" clip-path="none"></g><g class="highcharts-series highcharts-series-1 highcharts-spline-series highcharts-color-1" data-z-index="0.1" opacity="1" transform="translate(76,85) scale(1 1)" clip-path="url(#highcharts-l7h22fu-33-)"><path fill="none" d="M 17.916666666667 147.7932 C 17.916666666667 147.7932 39.4166666666668 135.338455 53.75 124.0132125 C 68.0833333333332 112.68797 75.2499999999998 103.66656499999932 89.583333333333 91.1669875 C 103.9166666666678 78.66740999999931 111.08333333333522 70.06134750000083 125.41666666667 61.51532499999999 C 139.750000000002 52.96930250000082 146.916666666668 48.436875000000015 161.25 48.436875000000015 C 175.58333333333198 48.436875000000015 182.749999999998 48.436875000000015 197.08333333333 50.87303750000001 C 211.416666666666 53.309200000000004 218.583333333334 59.78048499999924 232.91666666667 65.1779625 C 247.250000000002 70.57543999999925 254.41666666666802 77.86042499999999 268.75 77.86042499999999 C 283.083333333332 77.86042499999999 290.249999999998 74.455525 304.58333333333 74.455525 C 318.91666666666595 74.455525 326.08333333333405 75.67824749999888 340.41666666667 83.8693625 C 354.750000000002 92.06047749999887 361.916666666668 103.96202500000001 376.25 115.4111 C 390.583333333332 126.860175 412.08333333333 141.1147375 412.08333333333 141.1147375" class="highcharts-graph" data-z-index="1" stroke="#434348" stroke-width="2" stroke-linejoin="round" stroke-linecap="round"></path></g><g class="highcharts-markers highcharts-series-1 highcharts-spline-series highcharts-color-1" data-z-index="0.1" opacity="1" transform="translate(76,85) scale(1 1)" clip-path="none"><path fill="#434348" d="M 17 152 A 4 4 0 1 1 17.003999999333335 151.99999800000018 Z" opacity="1" class="highcharts-point highcharts-color-1"></path><path fill="#434348" d="M 53 128 A 4 4 0 1 1 53.00399999933334 127.99999800000016 Z" opacity="1" class="highcharts-point highcharts-color-1"></path><path fill="#434348" d="M 89 95 A 4 4 0 1 1 89.00399999933333 94.99999800000016 Z" opacity="1" class="highcharts-point highcharts-color-1"></path><path fill="#434348" d="M 125 66 A 4 4 0 1 1 125.00399999933333 65.99999800000016 Z" opacity="1" class="highcharts-point highcharts-color-1"></path><path fill="#434348" d="M 161 52 A 4 4 0 1 1 161.00399999933333 51.99999800000017 Z" opacity="1" class="highcharts-point highcharts-color-1"></path><path fill="#434348" d="M 197 55 A 4 4 0 1 1 197.00399999933333 54.99999800000017 Z" opacity="1" class="highcharts-point highcharts-color-1"></path><path fill="#434348" d="M 232 69 A 4 4 0 1 1 232.00399999933333 68.99999800000016 Z" opacity="1" class="highcharts-point highcharts-color-1"></path><path fill="#434348" d="M 268 82 A 4 4 0 1 1 268.00399999933336 81.99999800000016 Z" opacity="1" class="highcharts-point highcharts-color-1"></path><path fill="#434348" d="M 304 78 A 4 4 0 1 1 304.00399999933336 77.99999800000016 Z" opacity="1" class="highcharts-point highcharts-color-1"></path><path fill="#434348" d="M 340 88 A 4 4 0 1 1 340.00399999933336 87.99999800000016 Z" opacity="1" class="highcharts-point highcharts-color-1"></path><path fill="#434348" d="M 376 119 A 4 4 0 1 1 376.00399999933336 118.99999800000016 Z" opacity="1" class="highcharts-point highcharts-color-1"></path><path fill="#434348" d="M 412 145 A 4 4 0 1 1 412.00399999933336 144.99999800000018 Z" opacity="1" class="highcharts-point highcharts-color-1"></path></g></g><text x="10" text-anchor="start" class="highcharts-title" data-z-index="4" style="color:#333237;font-size:18px;font-weight:normal;font-family:&quot;Open Sans&quot;, -apple-system, BlinkMacSystemFont, Avenir Next, Avenir, Segoe UI, Lucida Grande, Helvetica Neue, Helvetica, Fira Sans, Roboto, Noto, Droid Sans, Cantarell, Oxygen, Ubuntu, Franklin Gothic Medium, Century Gothic, Liberation Sans, sans-serif;fill:#333237;" y="24"><tspan>Average Monthly Temperature and Rainfall of Chad for 1901-</tspan><tspan dy="21" x="10">2016</tspan></text><text x="10" text-anchor="start" class="highcharts-subtitle" data-z-index="4" style="color:#333237;font-size:14px;font-family:&quot;Open Sans&quot;, -apple-system, BlinkMacSystemFont, Avenir Next, Avenir, Segoe UI, Lucida Grande, Helvetica Neue, Helvetica, Fira Sans, Roboto, Noto, Droid Sans, Cantarell, Oxygen, Ubuntu, Franklin Gothic Medium, Century Gothic, Liberation Sans, sans-serif;fill:#333237;" y="71"></text><text x="10" text-anchor="start" class="highcharts-caption" data-z-index="4" style="color:#666666;fill:#666666;" y="397"></text><g class="highcharts-legend" data-z-index="7" transform="translate(198,357)"><rect fill="#FFFFFF" class="highcharts-legend-box" rx="0" ry="0" x="0" y="0" width="203" height="28" visibility="visible"></rect><g data-z-index="1"><g><g class="highcharts-legend-item highcharts-column-series highcharts-color-0 highcharts-series-0" data-z-index="1" transform="translate(8,3)"><text x="21" style="color:#333333;cursor:pointer;font-size:12px;font-weight:bold;fill:#333333;" text-anchor="start" data-z-index="2" y="15"><tspan>Rainfall</tspan></text><rect x="2" y="4" width="12" height="12" fill="#7cb5ec" rx="6" ry="6" class="highcharts-point" data-z-index="3"></rect></g><g class="highcharts-legend-item highcharts-spline-series highcharts-color-1 highcharts-series-1" data-z-index="1" transform="translate(94.9375,3)"><path fill="none" d="M 0 11 L 16 11" class="highcharts-graph" stroke="#434348" stroke-width="2"></path><path fill="#434348" d="M 8 15 A 4 4 0 1 1 8.003999999333336 14.999998000000167 Z" class="highcharts-point" opacity="1"></path><text x="21" y="15" style="color:#333333;cursor:pointer;font-size:12px;font-weight:bold;fill:#333333;" text-anchor="start" data-z-index="2"><tspan>Temperature</tspan></text></g></g></g></g><g class="highcharts-axis-labels highcharts-xaxis-labels" data-z-index="7"><text x="93.91666666666333" style="color:#666666;cursor:default;font-size:11px;fill:#666666;" text-anchor="middle" transform="translate(0,0)" y="341" opacity="1">Jan</text><text x="129.75000000000335" style="color:#666666;cursor:default;font-size:11px;fill:#666666;" text-anchor="middle" transform="translate(0,0)" y="341" opacity="1">Feb</text><text x="165.58333333333334" style="color:#666666;cursor:default;font-size:11px;fill:#666666;" text-anchor="middle" transform="translate(0,0)" y="341" opacity="1">Mar</text><text x="201.41666666666333" style="color:#666666;cursor:default;font-size:11px;fill:#666666;" text-anchor="middle" transform="translate(0,0)" y="341" opacity="1">Apr</text><text x="237.25000000000335" style="color:#666666;cursor:default;font-size:11px;fill:#666666;" text-anchor="middle" transform="translate(0,0)" y="341" opacity="1">May</text><text x="273.0833333333333" style="color:#666666;cursor:default;font-size:11px;fill:#666666;" text-anchor="middle" transform="translate(0,0)" y="341" opacity="1">Jun</text><text x="308.91666666666333" style="color:#666666;cursor:default;font-size:11px;fill:#666666;" text-anchor="middle" transform="translate(0,0)" y="341" opacity="1">Jul</text><text x="344.7500000000033" style="color:#666666;cursor:default;font-size:11px;fill:#666666;" text-anchor="middle" transform="translate(0,0)" y="341" opacity="1">Aug</text><text x="380.5833333333333" style="color:#666666;cursor:default;font-size:11px;fill:#666666;" text-anchor="middle" transform="translate(0,0)" y="341" opacity="1">Sep</text><text x="416.41666666666333" style="color:#666666;cursor:default;font-size:11px;fill:#666666;" text-anchor="middle" transform="translate(0,0)" y="341" opacity="1">Oct</text><text x="452.2500000000033" style="color:#666666;cursor:default;font-size:11px;fill:#666666;" text-anchor="middle" transform="translate(0,0)" y="341" opacity="1">Nov</text><text x="488.0833333333333" style="color:#666666;cursor:default;font-size:11px;fill:#666666;" text-anchor="middle" transform="translate(0,0)" y="341" opacity="1">Dec</text></g><g class="highcharts-axis-labels highcharts-yaxis-labels" data-z-index="7"><text x="61" style="color:#666666;cursor:default;font-size:11px;fill:#666666;" text-anchor="end" transform="translate(0,0)" y="326" opacity="1">12°C</text><text x="61" style="color:#666666;cursor:default;font-size:11px;fill:#666666;" text-anchor="end" transform="translate(0,0)" y="266" opacity="1">18°C</text><text x="61" style="color:#666666;cursor:default;font-size:11px;fill:#666666;" text-anchor="end" transform="translate(0,0)" y="207" opacity="1">24°C</text><text x="61" style="color:#666666;cursor:default;font-size:11px;fill:#666666;" text-anchor="end" transform="translate(0,0)" y="148" opacity="1">30°C</text><text x="61" style="color:#666666;cursor:default;font-size:11px;fill:#666666;" text-anchor="end" transform="translate(0,0)" y="89" opacity="1">36°C</text></g><g class="highcharts-axis-labels highcharts-yaxis-labels" data-z-index="7"><text x="521" style="color:#666666;cursor:default;font-size:11px;fill:#666666;" text-anchor="start" transform="translate(0,0)" y="326" opacity="1"><tspan>0 mm</tspan></text><text x="521" style="color:#666666;cursor:default;font-size:11px;fill:#666666;" text-anchor="start" transform="translate(0,0)" y="266" opacity="1"><tspan>40 mm</tspan></text><text x="521" style="color:#666666;cursor:default;font-size:11px;fill:#666666;" text-anchor="start" transform="translate(0,0)" y="207" opacity="1"><tspan>80 mm</tspan></text><text x="521" style="color:#666666;cursor:default;font-size:11px;fill:#666666;" text-anchor="start" transform="translate(0,0)" y="148" opacity="1"><tspan>120 mm</tspan></text><text x="521" style="color:#666666;cursor:default;font-size:11px;fill:#666666;" text-anchor="start" transform="translate(0,0)" y="89" opacity="1"><tspan>160 mm</tspan></text></g><text x="590" class="highcharts-credits" text-anchor="end" data-z-index="8" style="cursor:pointer;color:#999999;font-size:9px;fill:#999999;" y="395">Highcharts.com</text></svg>