<?xml version="1.0" standalone="no"?><!DOCTYPE svg PUBLIC "-//W3C//DTD SVG 1.1//EN" "http://www.w3.org/Graphics/SVG/1.1/DTD/svg11.dtd"><svg xmlns:xlink="http://www.w3.org/1999/xlink" version="1.1" class="highcharts-root" style="font-family:mukta vaani;font-size:12px;" xmlns="http://www.w3.org/2000/svg" width="600" viewBox="0 0 600 400" height="400"><desc>Created with Highcharts 5.0.2</desc><defs><clipPath id="highcharts-114"><rect x="0" y="0" width="580" height="277" fill="none"></rect></clipPath></defs><rect fill="#FFFFFF" class="highcharts-background" x="0" y="0" width="600" height="400" rx="0" ry="0"></rect><rect fill="none" class="highcharts-plot-background" x="10" y="83" width="580" height="277"></rect><rect fill="none" class="highcharts-plot-border" x="10" y="83" width="580" height="277"></rect><g class="highcharts-series-group"><g class="highcharts-series highcharts-series-0 highcharts-pie-series highcharts-color-undefined " transform="translate(10,83) scale(1 1)"><path fill="#3892C6" d="M 289.9798618119846 40.12500205080465 A 98.875 98.875 0 0 1 321.0836521544839 45.13801518325404 L 290 139 A 0 0 0 0 0 290 139 Z" class="highcharts-point highcharts-color-0" stroke="#ffffff" stroke-width="1" stroke-linejoin="round"></path><path fill="#434348" d="M 321.1774985818322 45.16914576121641 A 98.875 98.875 0 0 1 386.90408288405274 158.64343008236168 L 290 139 A 0 0 0 0 0 290 139 Z" class="highcharts-point highcharts-color-1" stroke="#ffffff" stroke-width="1" stroke-linejoin="round"></path><path fill="#0B9444" d="M 386.8843910052069 158.74032432738082 A 98.875 98.875 0 0 1 191.19862272359853 142.81490147791214 L 290 139 A 0 0 0 0 0 290 139 Z" class="highcharts-point highcharts-color-2" stroke="#ffffff" stroke-width="1" stroke-linejoin="round"></path><path fill="#D1E8B5" d="M 191.19485722344092 142.71609820965207 A 98.875 98.875 0 0 1 200.77171514636277 96.40212673057287 L 290 139 A 0 0 0 0 0 290 139 Z" class="highcharts-point highcharts-color-3" stroke="#ffffff" stroke-width="1" stroke-linejoin="round"></path><path fill="#064A22" d="M 200.81435762667127 96.31291975952549 A 98.875 98.875 0 0 1 289.86266460862316 40.1250953780977 L 290 139 A 0 0 0 0 0 290 139 Z" class="highcharts-point highcharts-color-4" stroke="#ffffff" stroke-width="1" stroke-linejoin="round"></path></g><g class="highcharts-markers highcharts-series-0 highcharts-pie-series highcharts-color-undefined " transform="translate(10,83) scale(1 1)"></g></g><text x="10" text-anchor="start" class="highcharts-title" style="color:#333333;font-size:14px;padding-bottom:5px;fill:#333333;width:536px;" y="21"><tspan class="lhsTitle"></tspan></text><text x="300" text-anchor="middle" class="highcharts-subtitle" style="color:#666666;fill:#666666;width:536px;" y="47"><tspan>Method Mix</tspan><tspan x="300" dy="15">Chad</tspan></text><g class="highcharts-data-labels highcharts-series-0 highcharts-pie-series highcharts-color-undefined " transform="translate(10,83) scale(1 1)" opacity="1"><path fill="none" class="highcharts-data-label-connector highcharts-color-0" stroke="#000000" stroke-width="1" d="M 315.560279634105 11.275629196417686 C 310.560279634105 11.275629196417686 307.68862079093213 29.04508544832443 306.7314011765412 34.968237532293344 L 305.7741815621503 40.89138961626226"></path><path fill="none" class="highcharts-data-label-connector highcharts-color-1" stroke="#000000" stroke-width="1" d="M 406.54148393635785 73.94565865663851 C 401.54148393635785 73.94565865663851 385.9624599918035 82.96197791313128 380.76945201028536 85.96741766529554 L 375.57644402876724 88.9728574174598"></path><path fill="none" class="highcharts-data-label-connector highcharts-color-2" stroke="#000000" stroke-width="1" d="M 274.4850099341535 266.9453214753856 C 279.4850099341535 266.9453214753856 280.95364094238056 249.00533477077306 281.4431846117895 243.0253392025689 L 281.9327282811984 237.0453436343647"></path><path fill="none" class="highcharts-data-label-connector highcharts-color-3" stroke="#000000" stroke-width="1" d="M 158.80266028111993 112.3657873109295 C 163.80266028111993 112.3657873109295 181.42867087231173 116.01595862734672 187.3040077360423 117.2326823994858 L 193.1793445997729 118.44940617162487"></path><path fill="none" class="highcharts-data-label-connector highcharts-color-4" stroke="#000000" stroke-width="1" d="M 216.28750737749476 29.470834257056886 C 221.28750737749476 29.470834257056886 230.88459655076417 44.698962159078036 234.0836262751873 49.77500479308509 L 237.28265599961043 54.85104742709214"></path><g class="highcharts-label highcharts-data-label highcharts-data-label-color-0 " style="cursor:pointer;" transform="translate(321,1)"><text x="5" style="font-size:11px;font-weight:normal;color:#000000;text-shadow:1px 1px #ffffff, -1px -1px #ffffff, -1px 1px #ffffff, 1px -1px #ffffff;fill:#000000;text-rendering:geometricprecision;" y="16"><tspan>Sterilization (female): 5.1 %</tspan></text></g><g class="highcharts-label highcharts-data-label highcharts-data-label-color-1 " style="cursor:pointer;" transform="translate(412,64)"><text x="5" style="font-size:11px;font-weight:normal;color:#000000;text-shadow:1px 1px #ffffff, -1px -1px #ffffff, -1px 1px #ffffff, 1px -1px #ffffff;fill:#000000;text-rendering:geometricprecision;" y="16"><tspan>Implant: 23.1 %</tspan></text></g><g class="highcharts-label highcharts-data-label highcharts-data-label-color-2 " style="cursor:pointer;" transform="translate(179,257)"><text x="5" style="font-size:11px;font-weight:normal;color:#000000;text-shadow:1px 1px #ffffff, -1px -1px #ffffff, -1px 1px #ffffff, 1px -1px #ffffff;fill:#000000;text-rendering:geometricprecision;" y="16"><tspan>Injectable: 46.2 %</tspan></text></g><g class="highcharts-label highcharts-data-label highcharts-data-label-color-3 " style="cursor:pointer;" transform="translate(102,102)"><text x="5" style="font-size:11px;font-weight:normal;color:#000000;text-shadow:1px 1px #ffffff, -1px -1px #ffffff, -1px 1px #ffffff, 1px -1px #ffffff;fill:#000000;text-rendering:geometricprecision;" y="16"><tspan>Pill: 7.7 %</tspan></text></g><g class="highcharts-label highcharts-data-label highcharts-data-label-color-4 " style="cursor:pointer;" transform="translate(98,19)"><text x="5" style="font-size:11px;font-weight:normal;color:#000000;text-shadow:1px 1px #ffffff, -1px -1px #ffffff, -1px 1px #ffffff, 1px -1px #ffffff;fill:#000000;text-rendering:geometricprecision;" y="16"><tspan>Condom (male): 17.9 %</tspan></text></g></g><text x="590" class="highcharts-credits" text-anchor="end" style="cursor:auto;color:#999999;font-size:10px;fill:#999999;" y="395"><tspan>Source: 2014-15 DHS</tspan></text></svg>