<?xml version="1.0" standalone="no"?><!DOCTYPE svg PUBLIC "-//W3C//DTD SVG 1.1//EN" "http://www.w3.org/Graphics/SVG/1.1/DTD/svg11.dtd"><svg xmlns:xlink="http://www.w3.org/1999/xlink" version="1.1" style="font-family:'unica one', sans-serif;font-size:12px;" xmlns="http://www.w3.org/2000/svg" width="600" height="400"><desc>Created with Highcharts 4.2.7</desc><defs><linearGradient x1="0" y1="0" x2="0" y2="1" id="highcharts-65"><stop offset="0" stop-color="rgb(96,96,96)" stop-opacity="0.8"></stop><stop offset="1" stop-color="rgb(16,16,16)" stop-opacity="0.8"></stop></linearGradient><linearGradient x1="0" y1="0" x2="250" y2="500" gradientUnits="userSpaceOnUse" id="highcharts-66"><stop offset="0" stop-color="rgb(96, 96, 96)" stop-opacity="1"></stop><stop offset="1" stop-color="rgb(16, 16, 16)" stop-opacity="1"></stop></linearGradient><clipPath id="highcharts-67"><rect x="0" y="0" width="580" height="258"></rect></clipPath></defs><rect x="0" y="0" width="600" height="400" fill="url(#highcharts-66)" class=" highcharts-background"></rect><g class="highcharts-series-group"><g class="highcharts-series highcharts-series-0" transform="translate(10,68) scale(1 1)"><path fill="#50B432" d="M 289.9789198234175 41.50000214673358 A 103.5 103.5 0 1 1 275.8439318664033 247.52734140216927 L 290 145 A 0 0 0 1 0 290 145 Z" stroke="#FFFFFF" stroke-width="1" stroke-linejoin="round" transform="translate(0,0)"></path><path fill="#ED561B" d="M 275.7414116201225 247.51313407272858 A 103.5 103.5 0 0 1 186.7637616165425 137.61561888619394 L 290 145 A 0 0 0 0 0 290 145 Z" stroke="#FFFFFF" stroke-width="1" stroke-linejoin="round" transform="translate(0,0)"></path><path fill="#DDDF00" d="M 186.77119761454045 137.5123863572068 A 103.5 103.5 0 0 1 265.3586744751272 44.476096989933524 L 290 145 A 0 0 0 0 0 290 145 Z" stroke="#FFFFFF" stroke-width="1" stroke-linejoin="round" transform="translate(0,0)"></path><path fill="#24CBE5" d="M 265.45921068204507 44.451505930462844 A 103.5 103.5 0 0 1 267.272961344273 44.02608399224535 L 290 145 A 0 0 0 0 0 290 145 Z" stroke="#FFFFFF" stroke-width="1" stroke-linejoin="round" transform="translate(0,0)"></path><path fill="#64E572" d="M 267.3739466069702 44.003407444331245 A 103.5 103.5 0 0 1 285.30385338637024 41.60659495411086 L 290 145 A 0 0 0 0 0 290 145 Z" stroke="#FFFFFF" stroke-width="1" stroke-linejoin="round" transform="translate(0,0)"></path><path fill="#FF9655" d="M 285.40724912225704 41.601950504978134 A 103.5 103.5 0 0 1 289.85624057640956 41.50009983952579 L 290 145 A 0 0 0 0 0 290 145 Z" stroke="#FFFFFF" stroke-width="1" stroke-linejoin="round" transform="translate(0,0)"></path></g><g class="highcharts-markers highcharts-series-0" transform="translate(10,68) scale(1 1)"></g></g><text x="300" text-anchor="middle" class="highcharts-title" style="color:#fff;font-size:16px;font-family:lucida grande, lucida sans unicode, verdana, arial, helvetica, sans-serif;font-weight:normal;text-transform:none;fill:#fff;width:536px;" y="22"><tspan>Religion (2014-15)</tspan></text><text x="300" text-anchor="middle" class="highcharts-subtitle" style="color:#ddd;font-size:12px;font-family:lucida grande, lucida sans unicode, verdana, arial, helvetica, sans-serif;font-weight:normal;text-transform:none;fill:#ddd;width:536px;" y="49"><tspan>https://en.wikipedia.org/wiki/Religion_in_Chad</tspan></text><g class="highcharts-data-labels highcharts-series-0" transform="translate(10,68) scale(1 1)" opacity="1"><path fill="none" d="M 428.17999135375317 153.7379598945995 C 423.17999135375317 153.7379598945995 415.1991679018429 153.18437428293808 404.2255356554662 152.42319406690368 L 393.25190340908955 151.66201385086927" stroke="#50B432" stroke-width="1"></path><path fill="none" d="M 181.18933304110558 228.4380451615923 C 186.18933304110558 228.4380451615923 192.41019697871724 223.40804994591633 200.96388489293327 216.49180652436192 L 209.5175728071493 209.5755631028075" stroke="#ED561B" stroke-width="1"></path><path fill="none" d="M 171.6333382338529 74 C 176.6333382338529 74 194.17250388407524 63.46086755059369 202.57172665120808 70.56389908002373 L 210.97094941834092 77.66693060945377" stroke="#DDDF00" stroke-width="1"></path><path fill="none" d="M 187.78888952388212 53 C 192.78888952388212 53 261.4137668660088 22.299029156028766 263.9193331167969 33.009871222034214 L 266.424899367585 43.72071328803966" stroke="#24CBE5" stroke-width="1"></path><path fill="none" d="M 213.12510869573435 32 C 218.12510869573435 32 273.45577692830767 20.095262618523726 274.9058681935556 30.999263504549535 L 276.3559594588035 41.903264390575345" stroke="#64E572" stroke-width="1"></path><path fill="none" d="M 282.05853631360776 11 C 287.05853631360776 11 287.23480380043253 19.030467084722517 287.4771715948169 30.02779666295401 L 287.7195393892013 41.025126241185504" stroke="#FF9655" stroke-width="1"></path><g style="cursor:pointer;" transform="translate(433,144)"><text x="5" style="font-size:10px;font-weight:bold;font-family:'arial', sans-serif;color:#ccc;text-shadow:none;fill:#ccc;text-rendering:geometricprecision;" y="15"><tspan>Islam: 52.1 %</tspan></text></g><g style="cursor:pointer;" transform="translate(22,218)"><text x="5" style="font-size:10px;font-weight:bold;font-family:'arial', sans-serif;color:#ccc;text-shadow:none;fill:#ccc;text-rendering:geometricprecision;" y="15"><tspan>Protestant Christianity: 23.9 %</tspan></text></g><g style="cursor:pointer;" transform="translate(30,64)"><text x="5" style="font-size:10px;font-weight:bold;font-family:'arial', sans-serif;color:#ccc;text-shadow:none;fill:#ccc;text-rendering:geometricprecision;" y="15"><tspan>Catholic Christianity: 20 %</tspan></text></g><g style="cursor:pointer;" transform="translate(98,43)"><text x="5" style="font-size:10px;font-weight:bold;font-family:'arial', sans-serif;color:#ccc;text-shadow:none;fill:#ccc;text-rendering:geometricprecision;" y="15"><tspan>Animism: 0.3 %</tspan></text></g><g style="cursor:pointer;" transform="translate(141,22)"><text x="5" style="font-size:10px;font-weight:bold;font-family:'arial', sans-serif;color:#ccc;text-shadow:none;fill:#ccc;text-rendering:geometricprecision;" y="15"><tspan>None: 2.8 %</tspan></text></g><g style="cursor:pointer;" transform="translate(190,1)"><text x="5" style="font-size:10px;font-weight:bold;font-family:'arial', sans-serif;color:#ccc;text-shadow:none;fill:#ccc;text-rendering:geometricprecision;" y="15"><tspan>Unknown: 0.7 %</tspan></text></g></g><g class="highcharts-legend" transform="translate(46,338)"><g><g><g class="highcharts-legend-item" transform="translate(8,3)"><text x="21" style="color:#ccc;font-size:9pt;font-weight:bold;cursor:pointer;font-family:lucida grande, lucida sans unicode, verdana, arial, helvetica, sans-serif;text-transform:none;fill:#ccc;" text-anchor="start" y="15">Islam</text><rect x="0" y="4" width="16" height="12" fill="#50B432"></rect></g><g class="highcharts-legend-item" transform="translate(81.640625,3)"><text x="21" y="15" style="color:#ccc;font-size:9pt;font-weight:bold;cursor:pointer;font-family:lucida grande, lucida sans unicode, verdana, arial, helvetica, sans-serif;text-transform:none;fill:#ccc;" text-anchor="start"><tspan>Protestant Christianity</tspan></text><rect x="0" y="4" width="16" height="12" fill="#ED561B"></rect></g><g class="highcharts-legend-item" transform="translate(258.984375,3)"><text x="21" y="15" style="color:#ccc;font-size:9pt;font-weight:bold;cursor:pointer;font-family:lucida grande, lucida sans unicode, verdana, arial, helvetica, sans-serif;text-transform:none;fill:#ccc;" text-anchor="start"><tspan>Catholic Christianity</tspan></text><rect x="0" y="4" width="16" height="12" fill="#DDDF00"></rect></g><g class="highcharts-legend-item" transform="translate(423.90625,3)"><text x="21" y="15" style="color:#ccc;font-size:9pt;font-weight:bold;cursor:pointer;font-family:lucida grande, lucida sans unicode, verdana, arial, helvetica, sans-serif;text-transform:none;fill:#ccc;" text-anchor="start">Animism</text><rect x="0" y="4" width="16" height="12" fill="#24CBE5"></rect></g><g class="highcharts-legend-item" transform="translate(8,21)"><text x="21" y="15" style="color:#ccc;font-size:9pt;font-weight:bold;cursor:pointer;font-family:lucida grande, lucida sans unicode, verdana, arial, helvetica, sans-serif;text-transform:none;fill:#ccc;" text-anchor="start">None</text><rect x="0" y="4" width="16" height="12" fill="#64E572"></rect></g><g class="highcharts-legend-item" transform="translate(81.40625,21)"><text x="21" y="15" style="color:#ccc;font-size:9pt;font-weight:bold;cursor:pointer;font-family:lucida grande, lucida sans unicode, verdana, arial, helvetica, sans-serif;text-transform:none;fill:#ccc;" text-anchor="start">Unknown</text><rect x="0" y="4" width="16" height="12" fill="#FF9655"></rect></g></g></g></g><g class="highcharts-tooltip" display="none" style="cursor:default;padding:0;pointer-events:none;white-space:nowrap;" transform="translate(0,0)"><path fill="url(#highcharts-65)" d="M 3 0 L 13 0 C 16 0 16 0 16 3 L 16 13 C 16 16 16 16 13 16 L 3 16 C 0 16 0 16 0 13 L 0 3 C 0 0 0 0 3 0"></path><text x="8" style="font-size:12px;color:#fff;fill:#fff;" y="20"></text></g><text x="590" text-anchor="end" style="cursor:pointer;color:#666;font-size:9px;fill:#666;" y="395">meta-chart.com</text></svg>