<?xml version="1.0" standalone="no"?><!DOCTYPE svg PUBLIC "-//W3C//DTD SVG 1.1//EN" "http://www.w3.org/Graphics/SVG/1.1/DTD/svg11.dtd"><svg xmlns:xlink="http://www.w3.org/1999/xlink" version="1.1" style="font-family:'lucida grande', 'lucida sans unicode', arial, helvetica, sans-serif;font-size:12px;" xmlns="http://www.w3.org/2000/svg" width="600" height="400"><desc>Created with Highcharts 4.2.7</desc><defs><linearGradient x1="0" y1="0" x2="0" y2="1" id="highcharts-40"><stop offset="0" stop-color="rgb(96,96,96)" stop-opacity="0.8"></stop><stop offset="1" stop-color="rgb(16,16,16)" stop-opacity="0.8"></stop></linearGradient><linearGradient x1="0" y1="0" x2="0" y2="1" id="highcharts-41"><stop offset="0" stop-color="rgb(96, 96, 96)" stop-opacity="1"></stop><stop offset="1" stop-color="rgb(16, 16, 16)" stop-opacity="1"></stop></linearGradient><clipPath id="highcharts-42"><rect x="0" y="0" width="580" height="276"></rect></clipPath></defs><rect x="0" y="0" width="600" height="400" fill="url(#highcharts-41)" class=" highcharts-background"></rect><g class="highcharts-series-group"><g class="highcharts-series highcharts-series-0" transform="translate(10,68) scale(1 1)"><path fill="#324db4" d="M 289.9801418626397 41.500002022285244 A 97.5 97.5 0 0 1 293.0021672605405 41.546231515965786 L 290 139 A 0 0 0 0 0 290 139 Z" stroke="#FFFFFF" stroke-width="1" stroke-linejoin="round" transform="translate(0,0)"></path><path fill="#fc19ff" d="M 293.0996195116987 41.54928240960615 A 97.5 97.5 0 0 1 293.97653859605515 41.58112533603109 L 290 139 A 0 0 0 0 0 290 139 Z" stroke="#FFFFFF" stroke-width="1" stroke-linejoin="round" transform="translate(0,0)"></path><path fill="#00c7ff" d="M 294.0739554662135 41.58515058339765 A 97.5 97.5 0 0 1 304.16483450328553 42.53442342734621 L 290 139 A 0 0 0 0 0 290 139 Z" stroke="#FFFFFF" stroke-width="1" stroke-linejoin="round" transform="translate(0,0)"></path><path fill="#8200ab" d="M 304.2612929813639 42.54863649227296 A 97.5 97.5 0 0 1 305.3213737844255 42.711342800110046 L 290 139 A 0 0 0 0 0 290 139 Z" stroke="#FFFFFF" stroke-width="1" stroke-linejoin="round" transform="translate(0,0)"></path><path fill="#64E572" d="M 305.417654764891 42.726712315665495 A 97.5 97.5 0 1 1 289.86457445603804 41.50009405172719 L 290 139 A 0 0 0 1 0 290 139 Z" stroke="#FFFFFF" stroke-width="1" stroke-linejoin="round" transform="translate(0,0)"></path></g><g class="highcharts-markers highcharts-series-0" transform="translate(10,68) scale(1 1)"></g></g><text x="300" text-anchor="middle" class="highcharts-title" style="color:#fff;font-size:16px;font-family:lucida grande, lucida sans unicode, verdana, arial, helvetica, sans-serif;text-transform:none;font-weight:normal;fill:#fff;width:536px;" y="22"><tspan>Substance Use Disorders per 100,000 Year 2004</tspan></text><text x="300" text-anchor="middle" class="highcharts-subtitle" style="color:#ddd;font-size:12px;font-family:lucida grande, lucida sans unicode, verdana, arial, helvetica, sans-serif;text-transform:none;font-weight:normal;fill:#ddd;width:536px;" y="49"><tspan>https://www.who.int/substance_abuse/publications/atlas_report/profiles/chad.pdf?ua=1</tspan></text><g class="highcharts-data-labels highcharts-series-0" transform="translate(10,68) scale(1 1)" opacity="1"><path fill="none" d="M 297.0026829572572 11 C 292.0026829572572 11 291.8770244187625 19.014742418441557 291.7042439283325 30.013385375739823 L 291.5314634379025 41.01202833303809" stroke="#324db4" stroke-width="1"></path><path fill="none" d="M 365.09992867328754 32 C 360.09992867328754 32 294.35391188207717 19.079342443096934 293.9531333824717 30.072038954611024 L 293.55235488286627 41.064735466125114" stroke="#fc19ff" stroke-width="1"></path><path fill="none" d="M 389.58329662260667 53 C 384.58329662260667 53 301.2459434415624 19.53034522993194 300.2107519950588 30.48152684056582 L 299.17556054855515 41.4327084511997" stroke="#00c7ff" stroke-width="1"></path><path fill="none" d="M 404.98181667894016 74 C 399.98181667894016 74 308.2117262512686 20.395880567404213 306.5353330398548 31.267389469149432 L 304.85893982844095 42.13889837089465" stroke="#8200ab" stroke-width="1"></path><path fill="none" d="M 274.8766742677515 265.5974754907382 C 279.8766742677515 265.5974754907382 280.51186333330423 257.622731930535 281.3852482984394 246.65745953525564 L 282.2586332635746 235.69218713997626" stroke="#64E572" stroke-width="1"></path><g style="cursor:pointer;" transform="translate(302,1)"><text x="5" style="font-size:10px;font-weight:bold;font-family:'arial', sans-serif;color:#ccc;text-shadow:none;fill:#ccc;text-rendering:geometricprecision;" y="15"><tspan>Drugs Male: 0.5</tspan></text></g><g style="cursor:pointer;" transform="translate(370,22)"><text x="5" style="font-size:10px;font-weight:bold;font-family:'arial', sans-serif;color:#ccc;text-shadow:none;fill:#ccc;text-rendering:geometricprecision;" y="15"><tspan>Drugs Female: 0.16</tspan></text></g><g style="cursor:pointer;" transform="translate(395,43)"><text x="5" style="font-size:10px;font-weight:bold;font-family:'arial', sans-serif;color:#ccc;text-shadow:none;fill:#ccc;text-rendering:geometricprecision;" y="15"><tspan>Alcohol Male: 1.68</tspan></text></g><g style="cursor:pointer;" transform="translate(410,64)"><text x="5" style="font-size:10px;font-weight:bold;font-family:'arial', sans-serif;color:#ccc;text-shadow:none;fill:#ccc;text-rendering:geometricprecision;" y="15"><tspan>Alcohol Female: 0.19</tspan></text></g><g style="cursor:pointer;" transform="translate(203,256)"><text x="5" style="font-size:10px;font-weight:bold;font-family:'arial', sans-serif;color:#ccc;text-shadow:none;fill:#ccc;text-rendering:geometricprecision;" y="15"><tspan>None: 97.47</tspan></text></g></g><g class="highcharts-legend" transform="translate(21,356)"><g><g><g class="highcharts-legend-item" transform="translate(8,3)"><text x="21" style="color:#ccc;font-size:9pt;font-weight:bold;cursor:pointer;font-family:lucida grande, lucida sans unicode, verdana, arial, helvetica, sans-serif;text-transform:none;fill:#ccc;" text-anchor="start" y="15"><tspan>Drugs Male</tspan></text><rect x="0" y="4" width="16" height="12" fill="#324db4"></rect></g><g class="highcharts-legend-item" transform="translate(118.109375,3)"><text x="21" y="15" style="color:#ccc;font-size:9pt;font-weight:bold;cursor:pointer;font-family:lucida grande, lucida sans unicode, verdana, arial, helvetica, sans-serif;text-transform:none;fill:#ccc;" text-anchor="start"><tspan>Drugs Female</tspan></text><rect x="0" y="4" width="16" height="12" fill="#fc19ff"></rect></g><g class="highcharts-legend-item" transform="translate(242.671875,3)"><text x="21" y="15" style="color:#ccc;font-size:9pt;font-weight:bold;cursor:pointer;font-family:lucida grande, lucida sans unicode, verdana, arial, helvetica, sans-serif;text-transform:none;fill:#ccc;" text-anchor="start"><tspan>Alcohol Male</tspan></text><rect x="0" y="4" width="16" height="12" fill="#00c7ff"></rect></g><g class="highcharts-legend-item" transform="translate(362.859375,3)"><text x="21" y="15" style="color:#ccc;font-size:9pt;font-weight:bold;cursor:pointer;font-family:lucida grande, lucida sans unicode, verdana, arial, helvetica, sans-serif;text-transform:none;fill:#ccc;" text-anchor="start"><tspan>Alcohol Female</tspan></text><rect x="0" y="4" width="16" height="12" fill="#8200ab"></rect></g><g class="highcharts-legend-item" transform="translate(497.515625,3)"><text x="21" y="15" style="color:#ccc;font-size:9pt;font-weight:bold;cursor:pointer;font-family:lucida grande, lucida sans unicode, verdana, arial, helvetica, sans-serif;text-transform:none;fill:#ccc;" text-anchor="start">None</text><rect x="0" y="4" width="16" height="12" fill="#64E572"></rect></g></g></g></g><g class="highcharts-tooltip" display="none" style="cursor:default;padding:0;pointer-events:none;white-space:nowrap;" transform="translate(0,0)"><path fill="none" d="M 3 0 L 13 0 C 16 0 16 0 16 3 L 16 13 C 16 16 16 16 13 16 L 3 16 C 0 16 0 16 0 13 L 0 3 C 0 0 0 0 3 0"  stroke="black" stroke-opacity="0.049999999999999996" stroke-width="5" transform="translate(1, 1)"></path><path fill="none" d="M 3 0 L 13 0 C 16 0 16 0 16 3 L 16 13 C 16 16 16 16 13 16 L 3 16 C 0 16 0 16 0 13 L 0 3 C 0 0 0 0 3 0"  stroke="black" stroke-opacity="0.09999999999999999" stroke-width="3" transform="translate(1, 1)"></path><path fill="none" d="M 3 0 L 13 0 C 16 0 16 0 16 3 L 16 13 C 16 16 16 16 13 16 L 3 16 C 0 16 0 16 0 13 L 0 3 C 0 0 0 0 3 0"  stroke="black" stroke-opacity="0.15" stroke-width="1" transform="translate(1, 1)"></path><path fill="url(#highcharts-40)" d="M 3 0 L 13 0 C 16 0 16 0 16 3 L 16 13 C 16 16 16 16 13 16 L 3 16 C 0 16 0 16 0 13 L 0 3 C 0 0 0 0 3 0"></path><text x="8" style="font-size:12px;color:#fff;fill:#fff;" y="20"></text></g><text x="590" text-anchor="end" style="cursor:pointer;color:#909090;font-size:9px;fill:#909090;" y="395">meta-chart.com</text></svg>