<?xml version="1.0" encoding="utf-8"?>
<!-- Generator: Adobe Illustrator 16.0.4, SVG Export Plug-In . SVG Version: 6.00 Build 0)  -->
<!DOCTYPE svg PUBLIC "-//W3C//DTD SVG 1.1//EN" "http://www.w3.org/Graphics/SVG/1.1/DTD/svg11.dtd">
<svg version="1.1" id="Layer_1" xmlns="http://www.w3.org/2000/svg" xmlns:xlink="http://www.w3.org/1999/xlink" x="0px" y="0px"
	 width="69px" height="14.438px" viewBox="0 0 69 14.438" enable-background="new 0 0 69 14.438" xml:space="preserve">
<g>
	<path fill="#003B4C" d="M5.965,0.781H9.19l5.464,13.197h-3.286l-1.267-3.062H5.075l-1.269,3.062H0.502L5.965,0.781z M5.706,8.559
		h3.761L7.585,3.947L5.706,8.559z"/>
	<path fill="#003B4C" d="M18.75,0.781v7.4c0.024,0.582,0.049,1.036,0.07,1.357c0.018,0.32,0.051,0.58,0.099,0.771
		c0.044,0.188,0.103,0.334,0.177,0.426c0.074,0.09,0.174,0.194,0.307,0.316c0.133,0.118,0.271,0.213,0.415,0.287
		c0.146,0.074,0.326,0.127,0.546,0.169c0.218,0.038,0.48,0.071,0.791,0.087c0.309,0.02,0.688,0.03,1.137,0.03h2.691v2.353h-2.988
		c-0.461,0-0.846-0.002-1.147-0.008c-0.302-0.005-0.564-0.016-0.78-0.028s-0.402-0.037-0.555-0.069
		c-0.152-0.035-0.313-0.068-0.487-0.109c-0.67-0.186-1.249-0.494-1.729-0.93c-0.482-0.436-0.828-0.973-1.041-1.605
		c-0.105-0.303-0.186-0.711-0.238-1.236c-0.05-0.521-0.077-1.125-0.077-1.811v-7.4H18.75z"/>
	<path fill="#003B4C" d="M36.52,3.135h-3.66c-0.475,0-0.881,0.018-1.219,0.051c-0.335,0.033-0.623,0.088-0.867,0.16
		c-0.246,0.07-0.452,0.17-0.627,0.297c-0.169,0.123-0.327,0.277-0.473,0.466c-0.106,0.131-0.188,0.253-0.247,0.372
		c-0.061,0.122-0.108,0.258-0.147,0.406c-0.042,0.152-0.075,0.334-0.1,0.546c-0.028,0.21-0.052,0.479-0.081,0.808h7.421v2.357
		h-7.421c0.053,0.566,0.162,1.043,0.315,1.422c0.162,0.389,0.393,0.697,0.696,0.932c0.303,0.236,0.689,0.41,1.157,0.516
		c0.47,0.109,1.037,0.159,1.713,0.159h3.539v2.353h-3.66c-0.699,0-1.316-0.023-1.85-0.074c-0.534-0.057-1.008-0.137-1.414-0.25
		c-0.41-0.111-0.771-0.264-1.079-0.454c-0.313-0.192-0.598-0.425-0.861-0.702c-0.566-0.594-0.998-1.334-1.297-2.217
		c-0.296-0.887-0.447-1.877-0.447-2.971c0-2.388,0.747-4.208,2.239-5.46c0.236-0.198,0.474-0.364,0.715-0.505
		c0.233-0.141,0.498-0.25,0.78-0.325c0.282-0.081,0.597-0.141,0.938-0.181c0.342-0.042,0.738-0.059,1.187-0.059h4.749V3.135z"/>
	<path fill="#003B4C" d="M41.549,13.979h-2.811V0.781h2.811V13.979z M46.696,0.781h3.68l-5.504,6.514l5.246,6.684h-3.704
		l-4.767-6.684L46.696,0.781z"/>
	<path fill="#003B4C" d="M51.525,11.626h6.014c0.528,0,0.944-0.026,1.25-0.079c0.302-0.053,0.539-0.133,0.711-0.236
		c0.436-0.262,0.654-0.666,0.654-1.209c0-0.306-0.077-0.58-0.229-0.831c-0.15-0.249-0.361-0.442-0.624-0.573
		c-0.144-0.079-0.339-0.139-0.583-0.176c-0.245-0.043-0.526-0.062-0.839-0.062h-2.438c-0.793,0-1.456-0.066-1.99-0.208
		c-0.532-0.139-0.972-0.356-1.312-0.66c-0.396-0.345-0.704-0.771-0.923-1.281C51,5.803,50.892,5.26,50.892,4.68
		c0-0.844,0.21-1.6,0.634-2.264c0.418-0.668,0.976-1.123,1.66-1.359c0.146-0.054,0.304-0.099,0.477-0.137
		c0.172-0.04,0.367-0.068,0.584-0.092c0.219-0.018,0.472-0.033,0.764-0.039c0.287-0.003,0.625-0.008,1.005-0.008h6.533v2.354h-5.898
		c-0.62,0-1.072,0.014-1.354,0.041c-0.284,0.027-0.508,0.084-0.664,0.176c-0.422,0.227-0.634,0.643-0.634,1.251
		c0,0.55,0.204,0.956,0.614,1.204c0.185,0.119,0.405,0.198,0.663,0.235c0.257,0.04,0.635,0.062,1.139,0.062h2.117
		c0.962,0,1.733,0.082,2.314,0.248c0.579,0.164,1.061,0.447,1.444,0.843c0.305,0.302,0.544,0.718,0.724,1.245
		c0.18,0.523,0.266,1.082,0.266,1.662c0,0.715-0.148,1.369-0.454,1.971c-0.304,0.603-0.712,1.058-1.226,1.374
		c-0.161,0.104-0.34,0.192-0.535,0.259c-0.199,0.066-0.435,0.117-0.705,0.157c-0.269,0.042-0.581,0.071-0.938,0.089
		c-0.356,0.02-0.78,0.027-1.269,0.027h-6.627V11.626z"/>
	<path fill="#003B4C" d="M66.253,0.855c0.304,0,0.597,0.064,0.87,0.181c0.273,0.122,0.511,0.284,0.714,0.489
		c0.208,0.203,0.367,0.446,0.488,0.725c0.118,0.272,0.177,0.568,0.177,0.874c0,0.315-0.059,0.607-0.177,0.886
		c-0.121,0.271-0.284,0.51-0.49,0.716c-0.206,0.205-0.451,0.368-0.725,0.485c-0.278,0.119-0.572,0.176-0.888,0.176
		c-0.314,0-0.611-0.057-0.889-0.176c-0.276-0.117-0.518-0.28-0.727-0.485C64.4,4.52,64.238,4.281,64.117,4.01
		c-0.122-0.278-0.181-0.57-0.181-0.886c0-0.313,0.059-0.609,0.181-0.89c0.121-0.277,0.283-0.516,0.49-0.721
		c0.209-0.205,0.45-0.365,0.732-0.486C65.622,0.917,65.925,0.855,66.253,0.855z M66.246,1.287c-0.259,0-0.5,0.043-0.724,0.139
		c-0.222,0.094-0.417,0.227-0.583,0.393c-0.167,0.168-0.298,0.365-0.395,0.589c-0.095,0.223-0.142,0.464-0.142,0.717
		c0,0.255,0.047,0.487,0.142,0.716c0.097,0.223,0.228,0.416,0.393,0.58c0.164,0.166,0.355,0.295,0.575,0.393
		c0.223,0.1,0.456,0.147,0.707,0.147c0.249,0,0.483-0.048,0.705-0.147c0.22-0.098,0.413-0.227,0.576-0.393
		c0.163-0.164,0.294-0.357,0.393-0.58c0.09-0.229,0.141-0.461,0.141-0.716c0-0.247-0.051-0.485-0.141-0.708
		c-0.099-0.227-0.226-0.418-0.389-0.589c-0.16-0.169-0.354-0.302-0.572-0.398C66.718,1.332,66.485,1.287,66.246,1.287z
		 M65.736,4.357h-0.631V1.852h1.152c0.211,0,0.383,0.01,0.515,0.033c0.132,0.022,0.243,0.062,0.329,0.111
		c0.103,0.061,0.18,0.143,0.236,0.242c0.054,0.099,0.083,0.207,0.083,0.316c0,0.184-0.041,0.332-0.124,0.459
		c-0.081,0.123-0.199,0.208-0.352,0.266c0.285,0.086,0.436,0.314,0.448,0.685c0.003,0.065,0.007,0.118,0.011,0.152
		c0.007,0.038,0.012,0.069,0.018,0.095c0.008,0.026,0.012,0.046,0.023,0.068c0.003,0.025,0.013,0.051,0.027,0.078H66.76
		c-0.006-0.027-0.01-0.049-0.02-0.064l-0.027-0.132l-0.021-0.173c-0.01-0.107-0.031-0.201-0.061-0.271
		c-0.029-0.072-0.074-0.133-0.131-0.174c-0.054-0.047-0.127-0.076-0.214-0.094c-0.084-0.02-0.19-0.028-0.317-0.028h-0.232V4.357z
		 M66.317,2.935c0.149,0,0.253-0.022,0.315-0.075c0.066-0.045,0.095-0.129,0.095-0.24c0-0.104-0.028-0.181-0.095-0.228
		c-0.062-0.042-0.166-0.066-0.315-0.066h-0.581v0.609H66.317z"/>
</g>
</svg>
